<svg xmlns="http://www.w3.org/2000/svg" xmlns:xlink="http://www.w3.org/1999/xlink" fill="#000000" version="1.1" id="Capa_1" width="800px" height="800px" viewBox="0 0 606.816 606.816" xml:space="preserve">
<g>
	<g>
		<g>
			<path d="M477.884,79.917h-50.825c-11.908-7.781-24.874-13.455-36.857-17.557c-5.595-14.695-14.537-27.921-26.047-38.28     C347.263,8.875,325.688,0.5,303.408,0.5c-22.281,0-43.854,8.374-60.747,23.581c-11.509,10.36-20.452,23.586-26.046,38.28     c-11.984,4.102-24.949,9.776-36.857,17.557h-50.825c-32.058,0-58.14,26.082-58.14,58.14v410.118     c0,32.059,26.082,58.141,58.14,58.141h348.951c32.058,0,58.14-26.082,58.14-58.141V138.057     C536.023,105.999,509.941,79.917,477.884,79.917z M253.876,87.36c0.491-2.551,1.149-5.034,1.947-7.442     c7.067-21.335,25.7-36.578,47.585-36.578c21.885,0,40.518,15.243,47.585,36.578c0.798,2.409,1.456,4.891,1.947,7.442     c1.117,5.81,5.572,10.378,11.294,11.885c20.769,5.473,37.699,13.664,48.5,23.512c1.703,1.553,3.259,3.146,4.648,4.777     c6.852,8.046,1.201,20.417-9.367,20.417H198.801c-10.568,0-16.218-12.37-9.367-20.417c1.389-1.632,2.945-3.224,4.648-4.777     c10.801-9.849,27.732-18.04,48.5-23.512C248.304,97.737,252.758,93.169,253.876,87.36z M493.184,548.176     c0,8.451-6.851,15.301-15.3,15.301h-348.95c-8.45,0-15.3-6.85-15.3-15.301V138.057c0-8.45,6.85-15.3,15.3-15.3h16.175     c-0.507,2.123-0.894,4.28-1.147,6.468c-1.164,10.078,0.478,20.292,4.75,29.538c4.262,9.227,10.955,17.082,19.354,22.717     c9.08,6.091,19.708,9.311,30.735,9.311h209.215c11.027,0,21.655-3.22,30.734-9.312c8.4-5.635,15.094-13.491,19.355-22.717     c4.271-9.246,5.913-19.46,4.75-29.538c-0.253-2.187-0.641-4.344-1.147-6.467h16.175c8.45,0,15.3,6.85,15.3,15.3V548.176     L493.184,548.176z"/>
			
		</g>
		
		<g>
			<path d="M187.724,278.191H296.66c11.83,0,21.42-9.59,21.42-21.42c0-11.83-9.591-21.42-21.42-21.42H187.724     c-11.83,0-21.42,9.59-21.42,21.42C166.304,268.601,175.894,278.191,187.724,278.191z"/>
			<path d="M296.66,278.691H187.724c-12.087,0-21.92-9.833-21.92-21.92s9.833-21.92,21.92-21.92H296.66     c12.087,0,21.92,9.833,21.92,21.92S308.747,278.691,296.66,278.691z M187.724,235.851c-11.535,0-20.92,9.385-20.92,20.92     c0,11.535,9.385,20.92,20.92,20.92H296.66c11.536,0,20.92-9.385,20.92-20.92c0-11.536-9.385-20.92-20.92-20.92H187.724z"/>
		</g>
		<g>
			<path d="M419.094,350.871h-231.37c-11.83,0-21.42,9.59-21.42,21.42s9.59,21.42,21.42,21.42h231.37     c11.83,0,21.42-9.59,21.42-21.42S430.924,350.871,419.094,350.871z"/>
			<path d="M419.094,394.211h-231.37c-12.087,0-21.92-9.833-21.92-21.92s9.833-21.92,21.92-21.92h231.37     c12.087,0,21.92,9.833,21.92,21.92S431.181,394.211,419.094,394.211z M187.724,351.371c-11.535,0-20.92,9.385-20.92,20.92     s9.385,20.92,20.92,20.92h231.37c11.535,0,20.92-9.385,20.92-20.92s-9.385-20.92-20.92-20.92H187.724z"/>
		</g>
		<g>
			<path d="M352.891,466.855H187.724c-11.83,0-21.42,9.59-21.42,21.42s9.59,21.42,21.42,21.42h165.167     c11.83,0,21.42-9.59,21.42-21.42S364.721,466.855,352.891,466.855z"/>
			<path d="M352.891,510.195H187.724c-12.087,0-21.92-9.833-21.92-21.92s9.833-21.92,21.92-21.92h165.167     c12.087,0,21.92,9.833,21.92,21.92S364.978,510.195,352.891,510.195z M187.724,467.355c-11.535,0-20.92,9.385-20.92,20.92     s9.385,20.92,20.92,20.92h165.167c11.535,0,20.92-9.385,20.92-20.92s-9.385-20.92-20.92-20.92H187.724z"/>
		</g>
	</g>
</g>
</svg>